#!OML:ASF F:\VICON\USERDATA\INSTALL\rory3\rory3.ASF
:FULLY-SPECIFIED
:DEGREES
66
root -1.25307 16.3793 -17.193 1.16678 0.186029 0.484065
lowerback 12.5411 1.37175 -5.63157
upperback -4.27376 1.07138 1.79914
thorax -11.9294 1.02011 4.92682
lowerneck -8.70917 -6.08824 -4.02001
upperneck 17.3532 -8.55755 4.48066
head 7.10952 -4.00425 1.34343
rclavicle 5.80203e-015 8.34896e-015
rhumerus -39.7152 -14.7291 -75.1209
rradius 21.222
rwrist 4.84255
rhand -10.789 22.3509
rfingers 7.12502
rthumb 15.2238 -7.06892
lclavicle 5.80203e-015 8.34896e-015
lhumerus -43.2184 7.38741 83.5932
lradius 18.3888
lwrist -4.32337
lhand -4.5594 18.1261
lfingers 7.12502
lthumb 21.2167 46.985
rfemur -10.2344 15.0787 26.1411
rtibia 25.0456
rfoot -12.0798 -7.42011
rtoes -1.05566
lfemur -22.1286 5.79747 -19.8549
ltibia 72.6885
lfoot 3.31208 1.19484
ltoes 10.6405
67
root -1.26384 16.3726 -17.0876 1.26513 0.0502059 0.601249
lowerback 12.5275 1.45983 -5.75015
upperback -4.31602 1.16121 1.72418
thorax -11.9838 1.07079 4.89075
lowerneck -8.66896 -6.16351 -3.99289
upperneck 17.3352 -8.65206 4.4078
head 7.09642 -4.05495 1.30813
rclavicle 7.37988e-015 3.57812e-015
rhumerus -39.0277 -14.2554 -75.6708
rradius 21.9356
rwrist 4.5977
rhand -10.6584 19.944
rfingers 7.12502
rthumb 15.3496 -9.46624
lclavicle 7.37988e-015 3.57812e-015
lhumerus -43.5193 6.82205 83.9956
lradius 18.9466
lwrist -3.47056
lhand -4.49627 18.246
lfingers 7.12502
lthumb 21.2773 47.098
rfemur -9.82479 15.0234 26.155
rtibia 24.9381
rfoot -12.435 -7.30451
rtoes -1.42631
lfemur -23.4735 5.80534 -20.2002
ltibia 72.7001
lfoot 1.74972 1.07792
ltoes 8.11265
68
root -1.27296 16.36 -16.9811 1.38154 -0.00823468 0.667317
lowerback 12.4251 1.50459 -5.76922
upperback -4.3459 1.21705 1.66465
thorax -11.9628 1.09582 4.8229
lowerneck -8.67818 -6.22539 -4.05513
upperneck 17.2011 -8.73356 4.48025
head 7.06458 -4.0935 1.33447
rclavicle -1.80894e-014 -1.25234e-014
rhumerus -38.373 -13.8189 -76.194
rradius 22.7623
rwrist 4.3964
rhand -10.9924 19.6005
rfingers 7.12502
rthumb 15.0278 -9.83413
lclavicle -1.80894e-014 -1.25234e-014
lhumerus -43.7256 6.49371 84.287
lradius 19.3247
lwrist -2.78796
lhand -4.71726 17.9702
lfingers 7.12502
lthumb 21.065 46.8461
rfemur -9.51991 14.9192 26.2113
rtibia 24.9879
rfoot -12.8104 -7.15467
rtoes -2.00593
lfemur -24.7422 5.75266 -20.4761
ltibia 72.5985
lfoot 0.434768 1.28854
ltoes 7.82688
69
root -1.28374 16.3463 -16.8744 1.31305 -0.044172 0.617647
lowerback 12.547 1.51062 -5.75641
upperback -4.31767 1.2228 1.68352
thorax -12.0048 1.09907 4.83483
lowerneck -8.729 -6.18971 -4.12862
upperneck 17.1928 -8.6671 4.46158
head 7.07028 -4.067 1.34509
rclavicle 2.9445e-015 -7.95139e-015
rhumerus -37.6913 -13.3304 -76.5976
rradius 23.5297
rwrist 4.68008
rhand -11.1134 20.3119
rfingers 7.12502
rthumb 14.9112 -9.13146
lclavicle 2.9445e-015 -7.95139e-015
lhumerus -43.7801 6.82829 84.2068
lradius 19.3295
lwrist -2.84167
lhand -5.2204 17.2454
lfingers 7.12502
lthumb 20.5816 46.1743
rfemur -9.05617 14.9646 26.4728
rtibia 25.1642
rfoot -13.3481 -7.13644
rtoes -2.13449
lfemur -25.8532 5.63697 -20.5908
ltibia 72.3258
lfoot -0.549316 1.67856
ltoes 10.2892
70
root -1.29177 16.3286 -16.7728 1.26276 -0.0162895 0.621623
lowerback 12.7555 1.54591 -5.68712
upperback -4.26946 1.26392 1.62089
thorax -12.0761 1.11089 4.71524
lowerneck -8.81918 -6.16324 -4.16743
upperneck 17.2602 -8.62717 4.47636
head 7.10856 -4.04634 1.35626
rclavicle -7.90169e-015 1.19271e-015
rhumerus -37.0089 -12.9571 -77.0029
rradius 24.2986
rwrist 4.87489
rhand -10.9392 20.5259
rfingers 7.12502
rthumb 15.079 -8.90486
lclavicle -7.90169e-015 1.19271e-015
lhumerus -43.6895 7.07852 84.1068
lradius 19.2762
lwrist -3.05396
lhand -5.27618 17.3307
lfingers 7.12502
lthumb 20.528 46.2654
rfemur -8.59126 14.9198 26.6446
rtibia 25.2552
rfoot -13.8619 -7.05101
rtoes -2.11177
lfemur -26.9642 5.3269 -20.8071
ltibia 71.9375
lfoot -1.59753 2.00298
ltoes 12.4969
71
root -1.29415 16.3063 -16.667 1.28729 0.0512307 0.626979
lowerback 12.877 1.59152 -5.56969
upperback -4.25801 1.32948 1.53505
thorax -12.1374 1.12996 4.53679
lowerneck -8.76803 -6.18295 -4.02151
upperneck 17.1189 -8.65635 4.39866
head 7.04504 -4.06024 1.30857
rclavicle -1.70831e-014 -1.49089e-014
rhumerus -36.379 -12.4254 -77.5457
rradius 25.2331
rwrist 4.32999
rhand -10.9411 20.2681
rfingers 7.12502
rthumb 15.0773 -9.16283
lclavicle -1.70831e-014 -1.49089e-014
lhumerus -43.6896 7.24731 83.9505
lradius 19.3394
lwrist -3.33229
lhand -4.45076 17.8784
lfingers 7.12502
lthumb 21.3211 46.7255
rfemur -8.1551 14.8958 26.7731
rtibia 25.2653
rfoot -14.3574 -6.97916
rtoes -1.71463
lfemur -28.0304 4.93368 -21.0361
ltibia 71.4077
lfoot -2.84226 2.05762
ltoes 13.8022
72
root -1.29816 16.29 -16.5529 1.22346 0.102783 0.418612
lowerback 12.9796 1.575 -5.2867
upperback -4.26966 1.35254 1.54175
thorax -12.2047 1.12155 4.37684
lowerneck -8.65258 -6.17839 -3.94906
upperneck 17.0894 -8.65461 4.35147
head 7.00964 -4.06132 1.28624
rclavicle 8.52289e-015 -3.37934e-015
rhumerus -35.8515 -11.7555 -78.1011
rradius 26.21
rwrist 3.56105
rhand -10.8526 19.6283
rfingers 7.12502
rthumb 15.1625 -9.79623
lclavicle 8.52289e-015 -3.37934e-015
lhumerus -43.7994 7.53092 83.7715
lradius 19.3579
lwrist -3.57851
lhand -3.87805 18.2282
lfingers 7.12502
lthumb 21.8711 47.0121
rfemur -7.57237 15.1595 27.2233
rtibia 25.3091
rfoot -14.9323 -7.22344
rtoes -1.3758
lfemur -28.9561 4.60557 -20.9684
ltibia 70.6627
lfoot -3.90158 2.03828
ltoes 13.3309
73
root -1.30428 16.2823 -16.4419 1.22948 0.109204 0.317373
lowerback 12.9548 1.55674 -5.16824
upperback -4.27988 1.35083 1.54636
thorax -12.1968 1.11185 4.31498
lowerneck -8.4629 -6.16897 -3.97057
upperneck 17.0758 -8.6409 4.33852
head 6.97161 -4.06083 1.29319
rclavicle -2.69602e-015 1.39149e-015
rhumerus -35.3783 -11.0648 -78.5883
rradius 27.1093
rwrist 2.73959
rhand -11.0684 19.3489
rfingers 7.12502
rthumb 14.9546 -10.0912
lclavicle -2.69602e-015 1.39149e-015
lhumerus -43.8729 7.65591 83.7965
lradius 19.4771
lwrist -3.31583
lhand -3.88427 18.3877
lfingers 7.12502
lthumb 21.8651 47.1724
rfemur -6.95409 15.3884 27.5279
rtibia 25.0931
rfoot -15.3076 -7.53087
rtoes -2.26768
lfemur -29.9411 4.28688 -21.0518
ltibia 69.7656
lfoot -4.97671 2.23378
ltoes 9.8168
74
root -1.30641 16.2707 -16.3362 1.37769 0.0273369 0.412738
lowerback 12.9577 1.60818 -5.20247
upperback -4.3794 1.4066 1.49419
thorax -12.3193 1.14394 4.26331
lowerneck -8.25676 -6.16608 -4.07352
upperneck 16.9366 -8.63186 4.40194
head 6.89764 -4.06321 1.33892
rclavicle 1.33807e-014 -1.09332e-014
rhumerus -34.9776 -10.3653 -78.9864
rradius 27.94
rwrist 2.02031
rhand -11.0875 19.0433
rfingers 7.12502
rthumb 14.9362 -10.3981
lclavicle 1.33807e-014 -1.09332e-014
lhumerus -43.9802 7.43201 84.0512
lradius 19.6864
lwrist -2.71907
lhand -4.05856 18.7537
lfingers 7.12502
lthumb 21.6977 47.5577
rfemur -6.46118 15.287 27.492
rtibia 24.776
rfoot -15.5579 -7.39688
rtoes -2.68494
lfemur -30.9143 3.93052 -21.3867
ltibia 68.6606
lfoot -5.97664 2.52176
ltoes 7.00809
75
root -1.34112 16.2439 -16.2189 1.02521 -0.415371 -0.699259
lowerback 13.3507 1.81597 -4.66095
upperback -4.27123 1.81704 1.92425
thorax -12.4758 1.31897 4.3303
lowerneck -8.43426 -6.16245 -4.21828
upperneck 17.0433 -8.60828 4.42465
head 6.96972 -4.05428 1.36451
rclavicle 4.83295e-015 -2.42517e-014
rhumerus -34.4913 -9.414 -79.4968
rradius 28.9713
rwrist 0.736706
rhand -11.245 18.6791
rfingers 7.12502
rthumb 14.7844 -10.7736
lclavicle 4.83295e-015 -2.42517e-014
lhumerus -43.8153 7.58853 84.0641
lradius 19.5616
lwrist -2.54425
lhand -3.91872 18.9934
lfingers 7.12502
lthumb 21.832 47.7819
rfemur -5.37452 16.3333 29.2159
rtibia 24.4364
rfoot -15.9346 -8.13579
rtoes -3.10561
lfemur -31.5506 4.18649 -19.9933
ltibia 67.7181
lfoot -6.6511 2.24808
ltoes 8.64928
